<svg id="visual" viewBox="0 0 900 450" width="900" height="450" xmlns="http://www.w3.org/2000/svg" xmlns:xlink="http://www.w3.org/1999/xlink" version="1.1"><rect x="0" y="0" width="900" height="450" fill="#0b0a20"></rect><path d="M0 290L21.5 291.3C43 292.7 86 295.3 128.8 293C171.7 290.7 214.3 283.3 257.2 281.7C300 280 343 284 385.8 289C428.7 294 471.3 300 514.2 299.2C557 298.3 600 290.7 642.8 294.2C685.7 297.7 728.3 312.3 771.2 311.7C814 311 857 295 878.5 287L900 279L900 451L878.5 451C857 451 814 451 771.2 451C728.3 451 685.7 451 642.8 451C600 451 557 451 514.2 451C471.3 451 428.7 451 385.8 451C343 451 300 451 257.2 451C214.3 451 171.7 451 128.8 451C86 451 43 451 21.5 451L0 451Z" fill="#fa7268"></path><path d="M0 318L21.5 318.2C43 318.3 86 318.7 128.8 319.5C171.7 320.3 214.3 321.7 257.2 320.3C300 319 343 315 385.8 317C428.7 319 471.3 327 514.2 325C557 323 600 311 642.8 308.7C685.7 306.3 728.3 313.7 771.2 315.5C814 317.3 857 313.7 878.5 311.8L900 310L900 451L878.5 451C857 451 814 451 771.2 451C728.3 451 685.7 451 642.8 451C600 451 557 451 514.2 451C471.3 451 428.7 451 385.8 451C343 451 300 451 257.2 451C214.3 451 171.7 451 128.8 451C86 451 43 451 21.5 451L0 451Z" fill="#e39a58"></path><path d="M0 339L21.5 343.2C43 347.3 86 355.7 128.8 357.2C171.7 358.7 214.3 353.3 257.2 350.3C300 347.3 343 346.7 385.8 350.8C428.7 355 471.3 364 514.2 367.5C557 371 600 369 642.8 364.8C685.7 360.7 728.3 354.3 771.2 352C814 349.7 857 351.3 878.5 352.2L900 353L900 451L878.5 451C857 451 814 451 771.2 451C728.3 451 685.7 451 642.8 451C600 451 557 451 514.2 451C471.3 451 428.7 451 385.8 451C343 451 300 451 257.2 451C214.3 451 171.7 451 128.8 451C86 451 43 451 21.5 451L0 451Z" fill="#c4ba6f"></path><path d="M0 397L21.5 392.8C43 388.7 86 380.3 128.8 379C171.7 377.7 214.3 383.3 257.2 388.5C300 393.7 343 398.3 385.8 398C428.7 397.7 471.3 392.3 514.2 387.7C557 383 600 379 642.8 378.2C685.7 377.3 728.3 379.7 771.2 381.8C814 384 857 386 878.5 387L900 388L900 451L878.5 451C857 451 814 451 771.2 451C728.3 451 685.7 451 642.8 451C600 451 557 451 514.2 451C471.3 451 428.7 451 385.8 451C343 451 300 451 257.2 451C214.3 451 171.7 451 128.8 451C86 451 43 451 21.5 451L0 451Z" fill="#add19f"></path><path d="M0 395L21.5 398C43 401 86 407 128.8 410.8C171.7 414.7 214.3 416.3 257.2 414.3C300 412.3 343 406.7 385.8 402.7C428.7 398.7 471.3 396.3 514.2 395.2C557 394 600 394 642.8 397.8C685.7 401.7 728.3 409.3 771.2 411.8C814 414.3 857 411.7 878.5 410.3L900 409L900 451L878.5 451C857 451 814 451 771.2 451C728.3 451 685.7 451 642.8 451C600 451 557 451 514.2 451C471.3 451 428.7 451 385.8 451C343 451 300 451 257.2 451C214.3 451 171.7 451 128.8 451C86 451 43 451 21.5 451L0 451Z" fill="#afe0ce"></path></svg>