<svg id="visual" viewBox="0 0 900 450" width="900" height="450" xmlns="http://www.w3.org/2000/svg" xmlns:xlink="http://www.w3.org/1999/xlink" version="1.1"><path d="M0 132L13.7 150.7C27.3 169.3 54.7 206.7 82 214.2C109.3 221.7 136.7 199.3 163.8 169.3C191 139.3 218 101.7 245.2 100.8C272.3 100 299.7 136 327 151C354.3 166 381.7 160 409 142.8C436.3 125.7 463.7 97.3 491 97.3C518.3 97.3 545.7 125.7 573 128.7C600.3 131.7 627.7 109.3 654.8 99.7C682 90 709 93 736.2 110.2C763.3 127.3 790.7 158.7 818 160.2C845.3 161.7 872.7 133.3 886.3 119.2L900 105L900 0L886.3 0C872.7 0 845.3 0 818 0C790.7 0 763.3 0 736.2 0C709 0 682 0 654.8 0C627.7 0 600.3 0 573 0C545.7 0 518.3 0 491 0C463.7 0 436.3 0 409 0C381.7 0 354.3 0 327 0C299.7 0 272.3 0 245.2 0C218 0 191 0 163.8 0C136.7 0 109.3 0 82 0C54.7 0 27.3 0 13.7 0L0 0Z" fill="#8fd694"></path><path d="M0 159L13.7 177.7C27.3 196.3 54.7 233.7 82 243.3C109.3 253 136.7 235 163.8 212.5C191 190 218 163 245.2 163C272.3 163 299.7 190 327 200.5C354.3 211 381.7 205 409 193C436.3 181 463.7 163 491 166C518.3 169 545.7 193 573 193C600.3 193 627.7 169 654.8 158.5C682 148 709 151 736.2 163.8C763.3 176.7 790.7 199.3 818 201.7C845.3 204 872.7 186 886.3 177L900 168L900 103L886.3 117.2C872.7 131.3 845.3 159.7 818 158.2C790.7 156.7 763.3 125.3 736.2 108.2C709 91 682 88 654.8 97.7C627.7 107.3 600.3 129.7 573 126.7C545.7 123.7 518.3 95.3 491 95.3C463.7 95.3 436.3 123.7 409 140.8C381.7 158 354.3 164 327 149C299.7 134 272.3 98 245.2 98.8C218 99.7 191 137.3 163.8 167.3C136.7 197.3 109.3 219.7 82 212.2C54.7 204.7 27.3 167.3 13.7 148.7L0 130Z" fill="#89cb8d"></path><path d="M0 235L13.7 248.5C27.3 262 54.7 289 82 295.8C109.3 302.7 136.7 289.3 163.8 271.3C191 253.3 218 230.7 245.2 229.8C272.3 229 299.7 250 327 259.8C354.3 269.7 381.7 268.3 409 256.3C436.3 244.3 463.7 221.7 491 226.2C518.3 230.7 545.7 262.3 573 261.7C600.3 261 627.7 228 654.8 223.5C682 219 709 243 736.2 258.7C763.3 274.3 790.7 281.7 818 279.3C845.3 277 872.7 265 886.3 259L900 253L900 166L886.3 175C872.7 184 845.3 202 818 199.7C790.7 197.3 763.3 174.7 736.2 161.8C709 149 682 146 654.8 156.5C627.7 167 600.3 191 573 191C545.7 191 518.3 167 491 164C463.7 161 436.3 179 409 191C381.7 203 354.3 209 327 198.5C299.7 188 272.3 161 245.2 161C218 161 191 188 163.8 210.5C136.7 233 109.3 251 82 241.3C54.7 231.7 27.3 194.3 13.7 175.7L0 157Z" fill="#83c186"></path><path d="M0 298L13.7 308.5C27.3 319 54.7 340 82 350.5C109.3 361 136.7 361 163.8 349C191 337 218 313 245.2 309.3C272.3 305.7 299.7 322.3 327 326.8C354.3 331.3 381.7 323.7 409 310.2C436.3 296.7 463.7 277.3 491 278.8C518.3 280.3 545.7 302.7 573 307.2C600.3 311.7 627.7 298.3 654.8 300.7C682 303 709 321 736.2 336.7C763.3 352.3 790.7 365.7 818 366.3C845.3 367 872.7 355 886.3 349L900 343L900 251L886.3 257C872.7 263 845.3 275 818 277.3C790.7 279.7 763.3 272.3 736.2 256.7C709 241 682 217 654.8 221.5C627.7 226 600.3 259 573 259.7C545.7 260.3 518.3 228.7 491 224.2C463.7 219.7 436.3 242.3 409 254.3C381.7 266.3 354.3 267.7 327 257.8C299.7 248 272.3 227 245.2 227.8C218 228.7 191 251.3 163.8 269.3C136.7 287.3 109.3 300.7 82 293.8C54.7 287 27.3 260 13.7 246.5L0 233Z" fill="#7db77f"></path><path d="M0 451L13.7 451C27.3 451 54.7 451 82 451C109.3 451 136.7 451 163.8 451C191 451 218 451 245.2 451C272.3 451 299.7 451 327 451C354.3 451 381.7 451 409 451C436.3 451 463.7 451 491 451C518.3 451 545.7 451 573 451C600.3 451 627.7 451 654.8 451C682 451 709 451 736.2 451C763.3 451 790.7 451 818 451C845.3 451 872.7 451 886.3 451L900 451L900 341L886.3 347C872.7 353 845.3 365 818 364.3C790.7 363.7 763.3 350.3 736.2 334.7C709 319 682 301 654.8 298.7C627.7 296.3 600.3 309.7 573 305.2C545.7 300.7 518.3 278.3 491 276.8C463.7 275.3 436.3 294.7 409 308.2C381.7 321.7 354.3 329.3 327 324.8C299.7 320.3 272.3 303.7 245.2 307.3C218 311 191 335 163.8 347C136.7 359 109.3 359 82 348.5C54.7 338 27.3 317 13.7 306.5L0 296Z" fill="#77ad78"></path></svg>