<svg id="visual" viewBox="0 0 900 450" width="900" height="450" xmlns="http://www.w3.org/2000/svg" xmlns:xlink="http://www.w3.org/1999/xlink" version="1.1"><path d="M0 195L13.7 175.5C27.3 156 54.7 117 82 108.7C109.3 100.3 136.7 122.7 163.8 126.3C191 130 218 115 245.2 102.3C272.3 89.7 299.7 79.3 327 83.8C354.3 88.3 381.7 107.7 409 116.7C436.3 125.7 463.7 124.3 491 113.2C518.3 102 545.7 81 573 78.7C600.3 76.3 627.7 92.7 654.8 115.8C682 139 709 169 736.2 171.3C763.3 173.7 790.7 148.3 818 138.7C845.3 129 872.7 135 886.3 138L900 141L900 0L886.3 0C872.7 0 845.3 0 818 0C790.7 0 763.3 0 736.2 0C709 0 682 0 654.8 0C627.7 0 600.3 0 573 0C545.7 0 518.3 0 491 0C463.7 0 436.3 0 409 0C381.7 0 354.3 0 327 0C299.7 0 272.3 0 245.2 0C218 0 191 0 163.8 0C136.7 0 109.3 0 82 0C54.7 0 27.3 0 13.7 0L0 0Z" fill="#504b43"></path><path d="M0 226L13.7 214C27.3 202 54.7 178 82 174.3C109.3 170.7 136.7 187.3 163.8 188.8C191 190.3 218 176.7 245.2 162.3C272.3 148 299.7 133 327 139.8C354.3 146.7 381.7 175.3 409 185.8C436.3 196.3 463.7 188.7 491 169.8C518.3 151 545.7 121 573 115.8C600.3 110.7 627.7 130.3 654.8 160.3C682 190.3 709 230.7 736.2 238.8C763.3 247 790.7 223 818 206.5C845.3 190 872.7 181 886.3 176.5L900 172L900 139L886.3 136C872.7 133 845.3 127 818 136.7C790.7 146.3 763.3 171.7 736.2 169.3C709 167 682 137 654.8 113.8C627.7 90.7 600.3 74.3 573 76.7C545.7 79 518.3 100 491 111.2C463.7 122.3 436.3 123.7 409 114.7C381.7 105.7 354.3 86.3 327 81.8C299.7 77.3 272.3 87.7 245.2 100.3C218 113 191 128 163.8 124.3C136.7 120.7 109.3 98.3 82 106.7C54.7 115 27.3 154 13.7 173.5L0 193Z" fill="#473833"></path><path d="M0 280L13.7 268C27.3 256 54.7 232 82 226C109.3 220 136.7 232 163.8 241C191 250 218 256 245.2 254.5C272.3 253 299.7 244 327 242.5C354.3 241 381.7 247 409 257.5C436.3 268 463.7 283 491 272.5C518.3 262 545.7 226 573 217.8C600.3 209.7 627.7 229.3 654.8 252.7C682 276 709 303 736.2 310.5C763.3 318 790.7 306 818 297C845.3 288 872.7 282 886.3 279L900 276L900 170L886.3 174.5C872.7 179 845.3 188 818 204.5C790.7 221 763.3 245 736.2 236.8C709 228.7 682 188.3 654.8 158.3C627.7 128.3 600.3 108.7 573 113.8C545.7 119 518.3 149 491 167.8C463.7 186.7 436.3 194.3 409 183.8C381.7 173.3 354.3 144.7 327 137.8C299.7 131 272.3 146 245.2 160.3C218 174.7 191 188.3 163.8 186.8C136.7 185.3 109.3 168.7 82 172.3C54.7 176 27.3 200 13.7 212L0 224Z" fill="#3a262a"></path><path d="M0 343L13.7 329.5C27.3 316 54.7 289 82 285.3C109.3 281.7 136.7 301.3 163.8 313.3C191 325.3 218 329.7 245.2 327.3C272.3 325 299.7 316 327 314.5C354.3 313 381.7 319 409 328.8C436.3 338.7 463.7 352.3 491 341.8C518.3 331.3 545.7 296.7 573 289.2C600.3 281.7 627.7 301.3 654.8 318.7C682 336 709 351 736.2 354.7C763.3 358.3 790.7 350.7 818 352.2C845.3 353.7 872.7 364.3 886.3 369.7L900 375L900 274L886.3 277C872.7 280 845.3 286 818 295C790.7 304 763.3 316 736.2 308.5C709 301 682 274 654.8 250.7C627.7 227.3 600.3 207.7 573 215.8C545.7 224 518.3 260 491 270.5C463.7 281 436.3 266 409 255.5C381.7 245 354.3 239 327 240.5C299.7 242 272.3 251 245.2 252.5C218 254 191 248 163.8 239C136.7 230 109.3 218 82 224C54.7 230 27.3 254 13.7 266L0 278Z" fill="#271825"></path><path d="M0 451L13.7 451C27.3 451 54.7 451 82 451C109.3 451 136.7 451 163.8 451C191 451 218 451 245.2 451C272.3 451 299.7 451 327 451C354.3 451 381.7 451 409 451C436.3 451 463.7 451 491 451C518.3 451 545.7 451 573 451C600.3 451 627.7 451 654.8 451C682 451 709 451 736.2 451C763.3 451 790.7 451 818 451C845.3 451 872.7 451 886.3 451L900 451L900 373L886.3 367.7C872.7 362.3 845.3 351.7 818 350.2C790.7 348.7 763.3 356.3 736.2 352.7C709 349 682 334 654.8 316.7C627.7 299.3 600.3 279.7 573 287.2C545.7 294.7 518.3 329.3 491 339.8C463.7 350.3 436.3 336.7 409 326.8C381.7 317 354.3 311 327 312.5C299.7 314 272.3 323 245.2 325.3C218 327.7 191 323.3 163.8 311.3C136.7 299.3 109.3 279.7 82 283.3C54.7 287 27.3 314 13.7 327.5L0 341Z" fill="#0b0a20"></path></svg>