<svg id="visual" viewBox="0 0 900 450" width="900" height="450" xmlns="http://www.w3.org/2000/svg" xmlns:xlink="http://www.w3.org/1999/xlink" version="1.1"><path d="M0 42L13.7 46.5C27.3 51 54.7 60 82 61.5C109.3 63 136.7 57 163.8 58.5C191 60 218 69 245.2 75C272.3 81 299.7 84 327 84C354.3 84 381.7 81 409 75C436.3 69 463.7 60 491 62.2C518.3 64.3 545.7 77.7 573 82.8C600.3 88 627.7 85 654.8 75.3C682 65.7 709 49.3 736.2 41.8C763.3 34.3 790.7 35.7 818 45.3C845.3 55 872.7 73 886.3 82L900 91L900 0L886.3 0C872.7 0 845.3 0 818 0C790.7 0 763.3 0 736.2 0C709 0 682 0 654.8 0C627.7 0 600.3 0 573 0C545.7 0 518.3 0 491 0C463.7 0 436.3 0 409 0C381.7 0 354.3 0 327 0C299.7 0 272.3 0 245.2 0C218 0 191 0 163.8 0C136.7 0 109.3 0 82 0C54.7 0 27.3 0 13.7 0L0 0Z" fill="#afe0ce"></path><path d="M0 154L13.7 166.8C27.3 179.7 54.7 205.3 82 206.2C109.3 207 136.7 183 163.8 191.2C191 199.3 218 239.7 245.2 252.3C272.3 265 299.7 250 327 231.3C354.3 212.7 381.7 190.3 409 188.2C436.3 186 463.7 204 491 209.2C518.3 214.3 545.7 206.7 573 198.3C600.3 190 627.7 181 654.8 168.3C682 155.7 709 139.3 736.2 131.2C763.3 123 790.7 123 818 142.5C845.3 162 872.7 201 886.3 220.5L900 240L900 89L886.3 80C872.7 71 845.3 53 818 43.3C790.7 33.7 763.3 32.3 736.2 39.8C709 47.3 682 63.7 654.8 73.3C627.7 83 600.3 86 573 80.8C545.7 75.7 518.3 62.3 491 60.2C463.7 58 436.3 67 409 73C381.7 79 354.3 82 327 82C299.7 82 272.3 79 245.2 73C218 67 191 58 163.8 56.5C136.7 55 109.3 61 82 59.5C54.7 58 27.3 49 13.7 44.5L0 40Z" fill="#a3dec3"></path><path d="M0 280L13.7 292C27.3 304 54.7 328 82 320.5C109.3 313 136.7 274 163.8 268.8C191 263.7 218 292.3 245.2 311.2C272.3 330 299.7 339 327 328.5C354.3 318 381.7 288 409 279.7C436.3 271.3 463.7 284.7 491 283.2C518.3 281.7 545.7 265.3 573 252.7C600.3 240 627.7 231 654.8 228C682 225 709 228 736.2 228C763.3 228 790.7 225 818 242.2C845.3 259.3 872.7 296.7 886.3 315.3L900 334L900 238L886.3 218.5C872.7 199 845.3 160 818 140.5C790.7 121 763.3 121 736.2 129.2C709 137.3 682 153.7 654.8 166.3C627.7 179 600.3 188 573 196.3C545.7 204.7 518.3 212.3 491 207.2C463.7 202 436.3 184 409 186.2C381.7 188.3 354.3 210.7 327 229.3C299.7 248 272.3 263 245.2 250.3C218 237.7 191 197.3 163.8 189.2C136.7 181 109.3 205 82 204.2C54.7 203.3 27.3 177.7 13.7 164.8L0 152Z" fill="#99dcb5"></path><path d="M0 393L13.7 395.2C27.3 397.3 54.7 401.7 82 402.3C109.3 403 136.7 400 163.8 398.5C191 397 218 397 245.2 397.8C272.3 398.7 299.7 400.3 327 400.3C354.3 400.3 381.7 398.7 409 396.3C436.3 394 463.7 391 491 390.3C518.3 389.7 545.7 391.3 573 389.2C600.3 387 627.7 381 654.8 386.2C682 391.3 709 407.7 736.2 415.8C763.3 424 790.7 424 818 418.8C845.3 413.7 872.7 403.3 886.3 398.2L900 393L900 332L886.3 313.3C872.7 294.7 845.3 257.3 818 240.2C790.7 223 763.3 226 736.2 226C709 226 682 223 654.8 226C627.7 229 600.3 238 573 250.7C545.7 263.3 518.3 279.7 491 281.2C463.7 282.7 436.3 269.3 409 277.7C381.7 286 354.3 316 327 326.5C299.7 337 272.3 328 245.2 309.2C218 290.3 191 261.7 163.8 266.8C136.7 272 109.3 311 82 318.5C54.7 326 27.3 302 13.7 290L0 278Z" fill="#92d9a5"></path><path d="M0 451L13.7 451C27.3 451 54.7 451 82 451C109.3 451 136.7 451 163.8 451C191 451 218 451 245.2 451C272.3 451 299.7 451 327 451C354.3 451 381.7 451 409 451C436.3 451 463.7 451 491 451C518.3 451 545.7 451 573 451C600.3 451 627.7 451 654.8 451C682 451 709 451 736.2 451C763.3 451 790.7 451 818 451C845.3 451 872.7 451 886.3 451L900 451L900 391L886.3 396.2C872.7 401.3 845.3 411.7 818 416.8C790.7 422 763.3 422 736.2 413.8C709 405.7 682 389.3 654.8 384.2C627.7 379 600.3 385 573 387.2C545.7 389.3 518.3 387.7 491 388.3C463.7 389 436.3 392 409 394.3C381.7 396.7 354.3 398.3 327 398.3C299.7 398.3 272.3 396.7 245.2 395.8C218 395 191 395 163.8 396.5C136.7 398 109.3 401 82 400.3C54.7 399.7 27.3 395.3 13.7 393.2L0 391Z" fill="#8fd694"></path></svg>