<svg id="visual" viewBox="0 0 900 450" width="900" height="450" xmlns="http://www.w3.org/2000/svg" xmlns:xlink="http://www.w3.org/1999/xlink" version="1.1"><path d="M0 51L13.7 63.7C27.3 76.3 54.7 101.7 82 106.8C109.3 112 136.7 97 163.8 113.5C191 130 218 178 245.2 183.3C272.3 188.7 299.7 151.3 327 142.3C354.3 133.3 381.7 152.7 409 163.2C436.3 173.7 463.7 175.3 491 162.7C518.3 150 545.7 123 573 105.7C600.3 88.3 627.7 80.7 654.8 88.8C682 97 709 121 736.2 118.8C763.3 116.7 790.7 88.3 818 90.7C845.3 93 872.7 126 886.3 142.5L900 159L900 0L886.3 0C872.7 0 845.3 0 818 0C790.7 0 763.3 0 736.2 0C709 0 682 0 654.8 0C627.7 0 600.3 0 573 0C545.7 0 518.3 0 491 0C463.7 0 436.3 0 409 0C381.7 0 354.3 0 327 0C299.7 0 272.3 0 245.2 0C218 0 191 0 163.8 0C136.7 0 109.3 0 82 0C54.7 0 27.3 0 13.7 0L0 0Z" fill="#77ad78"></path><path d="M0 141L13.7 153C27.3 165 54.7 189 82 194.2C109.3 199.3 136.7 185.7 163.8 195.3C191 205 218 238 245.2 240.3C272.3 242.7 299.7 214.3 327 209.8C354.3 205.3 381.7 224.7 409 228.3C436.3 232 463.7 220 491 205.8C518.3 191.7 545.7 175.3 573 164.2C600.3 153 627.7 147 654.8 151.5C682 156 709 171 736.2 171.7C763.3 172.3 790.7 158.7 818 161.7C845.3 164.7 872.7 184.3 886.3 194.2L900 204L900 157L886.3 140.5C872.7 124 845.3 91 818 88.7C790.7 86.3 763.3 114.7 736.2 116.8C709 119 682 95 654.8 86.8C627.7 78.7 600.3 86.3 573 103.7C545.7 121 518.3 148 491 160.7C463.7 173.3 436.3 171.7 409 161.2C381.7 150.7 354.3 131.3 327 140.3C299.7 149.3 272.3 186.7 245.2 181.3C218 176 191 128 163.8 111.5C136.7 95 109.3 110 82 104.8C54.7 99.7 27.3 74.3 13.7 61.7L0 49Z" fill="#799263"></path><path d="M0 294L13.7 294.7C27.3 295.3 54.7 296.7 82 307.2C109.3 317.7 136.7 337.3 163.8 347.8C191 358.3 218 359.7 245.2 352.8C272.3 346 299.7 331 327 324.3C354.3 317.7 381.7 319.3 409 314.8C436.3 310.3 463.7 299.7 491 301.8C518.3 304 545.7 319 573 322C600.3 325 627.7 316 654.8 308.5C682 301 709 295 736.2 290.5C763.3 286 790.7 283 818 283.8C845.3 284.7 872.7 289.3 886.3 291.7L900 294L900 202L886.3 192.2C872.7 182.3 845.3 162.7 818 159.7C790.7 156.7 763.3 170.3 736.2 169.7C709 169 682 154 654.8 149.5C627.7 145 600.3 151 573 162.2C545.7 173.3 518.3 189.7 491 203.8C463.7 218 436.3 230 409 226.3C381.7 222.7 354.3 203.3 327 207.8C299.7 212.3 272.3 240.7 245.2 238.3C218 236 191 203 163.8 193.3C136.7 183.7 109.3 197.3 82 192.2C54.7 187 27.3 163 13.7 151L0 139Z" fill="#727854"></path><path d="M0 406L13.7 403.8C27.3 401.7 54.7 397.3 82 398.8C109.3 400.3 136.7 407.7 163.8 409.2C191 410.7 218 406.3 245.2 406.3C272.3 406.3 299.7 410.7 327 407.7C354.3 404.7 381.7 394.3 409 391.3C436.3 388.3 463.7 392.7 491 391.2C518.3 389.7 545.7 382.3 573 386.2C600.3 390 627.7 405 654.8 411C682 417 709 414 736.2 408.7C763.3 403.3 790.7 395.7 818 395.7C845.3 395.7 872.7 403.3 886.3 407.2L900 411L900 292L886.3 289.7C872.7 287.3 845.3 282.7 818 281.8C790.7 281 763.3 284 736.2 288.5C709 293 682 299 654.8 306.5C627.7 314 600.3 323 573 320C545.7 317 518.3 302 491 299.8C463.7 297.7 436.3 308.3 409 312.8C381.7 317.3 354.3 315.7 327 322.3C299.7 329 272.3 344 245.2 350.8C218 357.7 191 356.3 163.8 345.8C136.7 335.3 109.3 315.7 82 305.2C54.7 294.7 27.3 293.3 13.7 292.7L0 292Z" fill="#64604a"></path><path d="M0 451L13.7 451C27.3 451 54.7 451 82 451C109.3 451 136.7 451 163.8 451C191 451 218 451 245.2 451C272.3 451 299.7 451 327 451C354.3 451 381.7 451 409 451C436.3 451 463.7 451 491 451C518.3 451 545.7 451 573 451C600.3 451 627.7 451 654.8 451C682 451 709 451 736.2 451C763.3 451 790.7 451 818 451C845.3 451 872.7 451 886.3 451L900 451L900 409L886.3 405.2C872.7 401.3 845.3 393.7 818 393.7C790.7 393.7 763.3 401.3 736.2 406.7C709 412 682 415 654.8 409C627.7 403 600.3 388 573 384.2C545.7 380.3 518.3 387.7 491 389.2C463.7 390.7 436.3 386.3 409 389.3C381.7 392.3 354.3 402.7 327 405.7C299.7 408.7 272.3 404.3 245.2 404.3C218 404.3 191 408.7 163.8 407.2C136.7 405.7 109.3 398.3 82 396.8C54.7 395.3 27.3 399.7 13.7 401.8L0 404Z" fill="#504b43"></path></svg>